# xmcd
# 
# Track frame offsets:
#     150
#     24213
#     43983
#     64533
#     85665
#     108395
#     128480
#     149568
#     169130
#     187825
# 
# Disc length: 2809
# 
# Revision: 4
# Processed by: cddbd v1.5.2PL0 Copyright (c) Steve Scherf et al.
# Submitted via: BonkEnc v1.0.6
# 
DISCID=7c0af70a
DTITLE=ANTHEM - Gypsy Ways
DYEAR=1988
DGENRE=Metal
TTITLE0=Gypsy Ways (Win, Lose Or Draw)
TTITLE1=Love In Vain
TTITLE2=Bad Habits Die Hard
TTITLE3=Legal Killing
TTITLE4=Cryin' Heart
TTITLE5=Silent Child
TTITLE6=Midnight Sun
TTITLE7=Shout It Out!
TTITLE8=Final Risk
TTITLE9=Night Stalker
EXTD=YEAR: 1988
EXTT0=
EXTT1=
EXTT2=
EXTT3=
EXTT4=
EXTT5=
EXTT6=
EXTT7=
EXTT8=
EXTT9=
PLAYORDER=
